# xmcd
#
# Track frame offsets: 
#        150
#        13882
#        27682
#        39470
#        53356
#        66682
#        77884
#        90069
#        103281
#        118269
#        132185
#        145301
#        159743
#        175331
#        189635
#        203196
#        216658
#        231386
#        245971
#        260410
#        273516
#        287649
#        300826
#        313962
#        326122
#
# Disc length: 4539 seconds
#
# Revision: 0
# Processed by: cddbd v1.5.2PL0 Copyright (c) Steve Scherf et al.
# Submitted via: ExactAudioCopyFreeDBPlugin 1.0
#
DISCID=8b11b919
DTITLE=Various Artist - The Rough Guide to Gospel Blues
DYEAR=2016
DGENRE=Gospel
TTITLE0=Reverend Gary Davis - I Am The Light
TTITLE1=Blind Willie Johnson - I Know His Blood Can Make Me Whole
TTITLE2=Mississippi John Hurt - Praying On The Old Camp Ground
TTITLE3=Bukka White - The Promise True And Grand
TTITLE4=Rev. Edward W. Clayborn - Your Enemy Cannot Harm You
TTITLE5=Blind Roosevelt Graves and Brother - I'll Be Rested (When The Ro
TTITLE5=ll Is Called)
TTITLE6=Blind Boy Fuller - Twelve Gates To The City
TTITLE7=Blind Joe Taggart and Josh White - Scandalous And A Shame
TTITLE8=Mother McCollum - Jesus Is My Air-O-Plane
TTITLE9=Tallahassee Tight - Got Heaven In My View
TTITLE10=Skip James - Be Ready When He Comes
TTITLE11=Julius Daniels - Slippin' And Slidin' Up The Golden Street
TTITLE12=Blind Mamie Forehand - Wouldn't Mind Dying If Dying Was All
TTITLE13=Lil McClintock - Mother Called Her Child To Her Dying Bed
TTITLE14=Bo Weavil Jackson - I'm On My Way To The Kingdom Land
TTITLE15=Memphis Minnie - Let Me Ride
TTITLE16=Blind Gussie Nesbit - I’ll Just Stand And Wring My Hands And 
TTITLE16=Cry
TTITLE17=Blind Willie and Kate McTell - I Got Religion, I'm So Glad
TTITLE18=Blind Willie Davis - I've Got A Key To The Kingdom
TTITLE19=Henry Thomas - Jonah In The Wilderness
TTITLE20=Barbecue Bob - When The Saints Go Marching In
TTITLE21=Bessie Smith - On Revival Day
TTITLE22=Charley Patton - Jesus Is A Dying Bed Maker
TTITLE23=Sam Collins - Lead Me All The Way
TTITLE24=Blind Lemon Jefferson - All I Want Is That Pure Religion
EXTD=
EXTT0=
EXTT1=
EXTT2=
EXTT3=
EXTT4=
EXTT5=
EXTT6=
EXTT7=
EXTT8=
EXTT9=
EXTT10=
EXTT11=
EXTT12=
EXTT13=
EXTT14=
EXTT15=
EXTT16=
EXTT17=
EXTT18=
EXTT19=
EXTT20=
EXTT21=
EXTT22=
EXTT23=
EXTT24=
PLAYORDER=
